<svg width="24" height="22" viewBox="0 0 24 22" fill="none" xmlns="http://www.w3.org/2000/svg">
<g clip-path="url(#clip0_183_1350)">
<path d="M20.4074 8.25H18.9699V6.41665C18.9699 2.87848 15.9606 0 12.2616 0C8.56255 0 5.55328 2.87848 5.55328 6.41665V8.25H4.11578C3.85092 8.25 3.6366 8.455 3.6366 8.70835V20.1667C3.6366 21.1778 4.49618 22 5.55328 22H18.97C20.027 22 20.8866 21.1778 20.8866 20.1667V8.70835C20.8866 8.455 20.6723 8.25 20.4074 8.25ZM13.6963 17.8244C13.7113 17.9538 13.6678 18.0836 13.577 18.1807C13.4862 18.2778 13.3561 18.3333 13.22 18.3333H11.3033C11.1671 18.3333 11.037 18.2778 10.9462 18.1807C10.8555 18.0836 10.8119 17.9538 10.8269 17.8244L11.1292 15.2244C10.6383 14.8829 10.345 14.3426 10.345 13.75C10.345 12.7389 11.2045 11.9167 12.2616 11.9167C13.3187 11.9167 14.1783 12.7389 14.1783 13.75C14.1783 14.3426 13.8849 14.8829 13.3941 15.2244L13.6963 17.8244ZM16.0949 8.25H8.42828V6.41665C8.42828 4.39489 10.1479 2.75 12.2616 2.75C14.3753 2.75 16.0949 4.39489 16.0949 6.41665V8.25Z" fill="white"/>
</g>
<defs>
<clipPath id="clip0_183_1350">
<rect width="23" height="22" fill="white" transform="translate(0.500244)"/>
</clipPath>
</defs>
</svg>
