<svg width="19" height="13" viewBox="0 0 19 13" fill="none" xmlns="http://www.w3.org/2000/svg">
<path d="M0.401642 1.04278C2.97831 3.0346 7.49955 6.53881 8.8284 7.63143C9.00679 7.7789 9.19813 7.85387 9.39676 7.85387C9.59499 7.85387 9.78599 7.7796 9.96398 7.63283C11.294 6.53914 15.8152 3.0346 18.3919 1.04278C18.5523 0.919011 18.5768 0.701458 18.4469 0.550141C18.1467 0.200483 17.699 0 17.2193 0H1.57425C1.09452 0 0.646841 0.200484 0.34664 0.550175C0.216761 0.701458 0.241219 0.919011 0.401642 1.04278Z" fill="white"/>
<path d="M18.5565 2.11922C18.4179 2.06031 18.2548 2.08086 18.1394 2.17083C15.282 4.38191 11.635 7.21605 10.4876 8.1598C9.84361 8.69043 8.94982 8.69043 8.30432 8.1591C7.08129 7.15326 2.98591 3.97538 0.653303 2.1708C0.537175 2.08083 0.373709 2.06098 0.236204 2.11919C0.0979651 2.17779 0.00933838 2.30401 0.00933838 2.44311V11.4214C0.00933838 12.209 0.710982 12.8494 1.57386 12.8494H17.2189C18.0818 12.8494 18.7834 12.209 18.7834 11.4214V2.44311C18.7834 2.30401 18.6948 2.17746 18.5565 2.11922Z" fill="white"/>
</svg>
