<svg width="17" height="16" viewBox="0 0 17 16" fill="none" xmlns="http://www.w3.org/2000/svg">
<path d="M14.7302 10.5087C13.7503 10.5087 12.7881 10.3554 11.8764 10.054C11.4296 9.9016 10.8804 10.0414 10.6077 10.3216L8.80813 11.6805C6.72109 10.5661 5.43552 9.28055 4.33667 7.20854L5.65521 5.45528C5.99778 5.11307 6.12065 4.61317 5.97344 4.14413C5.67084 3.22731 5.51713 2.26533 5.51713 1.28472C5.51717 0.576318 4.94103 0 4.23288 0H1.29362C0.585479 0 0.00933838 0.576318 0.00933838 1.28468C0.00933838 9.40433 6.61301 16.01 14.7302 16.01C15.4383 16.01 16.0145 15.4337 16.0145 14.7253V11.7934C16.0144 11.085 15.4383 10.5087 14.7302 10.5087Z" fill="white"/>
</svg>
