<svg width="20" height="20" viewBox="0 0 20 20" fill="none" xmlns="http://www.w3.org/2000/svg">
<path d="M16.3608 6.66415C16.3716 6.80998 16.3716 6.95498 16.3716 7.09998C16.3716 11.5375 12.9941 16.6508 6.82163 16.6508C4.91996 16.6508 3.15329 16.1 1.66663 15.1433C1.93663 15.1742 2.19663 15.185 2.47746 15.185C4.04663 15.185 5.49079 14.655 6.64496 13.7508C5.16913 13.72 3.93246 12.7533 3.50579 11.4233C3.71329 11.4542 3.92163 11.475 4.13996 11.475C4.44079 11.475 4.74329 11.4333 5.02413 11.3608C3.48496 11.0492 2.33246 9.69832 2.33246 8.06665V8.02498C2.77996 8.27415 3.29913 8.42998 3.84913 8.45082C2.94496 7.84915 2.35246 6.81998 2.35246 5.65582C2.35246 5.03248 2.51829 4.46082 2.80913 3.96248C4.46163 5.99832 6.94579 7.32915 9.73079 7.47498C9.67913 7.22498 9.64746 6.96582 9.64746 6.70582C9.64746 4.85582 11.1441 3.34915 13.0041 3.34915C13.9708 3.34915 14.8433 3.75415 15.4566 4.40915C16.215 4.26332 16.9416 3.98248 17.5866 3.59832C17.3375 4.37748 16.8066 5.03248 16.1108 5.44832C16.7866 5.37498 17.4416 5.18832 18.0433 4.92832C17.5866 5.59332 17.0158 6.18582 16.3608 6.66415Z" fill="white"/>
</svg>
