<svg width="20" height="20" viewBox="0 0 20 20" fill="none" xmlns="http://www.w3.org/2000/svg">
<path d="M17.4559 6.92083C17.4467 6.28999 17.3301 5.66416 17.1067 5.07416C16.7159 4.06666 15.9201 3.26999 14.9126 2.87999C14.3301 2.66083 13.7142 2.54333 13.0909 2.52999C12.2892 2.49416 12.0351 2.48416 10.0001 2.48416C7.96506 2.48416 7.70423 2.48416 6.90839 2.52999C6.28589 2.54333 5.67006 2.66083 5.08756 2.87999C4.08006 3.26999 3.28339 4.06666 2.89339 5.07416C2.67423 5.65666 2.55589 6.27249 2.54423 6.89499C2.50839 7.69749 2.49756 7.95166 2.49756 9.98666C2.49756 12.0217 2.49756 12.2817 2.54423 13.0783C2.55673 13.7017 2.67423 14.3167 2.89339 14.9008C3.28423 15.9075 4.08006 16.7042 5.08839 17.0942C5.66839 17.3208 6.28423 17.4492 6.90923 17.4692C7.71173 17.505 7.96589 17.5158 10.0009 17.5158C12.0359 17.5158 12.2967 17.5158 13.0926 17.4692C13.7151 17.4567 14.3309 17.3392 14.9142 17.12C15.9217 16.7292 16.7176 15.9325 17.1084 14.9258C17.3276 14.3425 17.4451 13.7275 17.4576 13.1033C17.4934 12.3017 17.5042 12.0475 17.5042 10.0117C17.5026 7.97666 17.5026 7.71833 17.4559 6.92083ZM9.99506 13.835C7.86673 13.835 6.14256 12.1108 6.14256 9.98249C6.14256 7.85416 7.86673 6.12999 9.99506 6.12999C12.1217 6.12999 13.8476 7.85416 13.8476 9.98249C13.8476 12.1108 12.1217 13.835 9.99506 13.835ZM14.0009 6.88583C13.5034 6.88583 13.1026 6.48416 13.1026 5.98749C13.1026 5.49083 13.5034 5.08916 14.0009 5.08916C14.4967 5.08916 14.8984 5.49083 14.8984 5.98749C14.8984 6.48416 14.4967 6.88583 14.0009 6.88583Z" fill="white"/>
<path d="M9.99505 12.485C11.3771 12.485 12.4976 11.3646 12.4976 9.98251C12.4976 8.60042 11.3771 7.48001 9.99505 7.48001C8.61296 7.48001 7.49255 8.60042 7.49255 9.98251C7.49255 11.3646 8.61296 12.485 9.99505 12.485Z" fill="white"/>
</svg>
